<svg fill="none" height="100%" width="100%" viewBox="0 0 1080 1080" xmlns:xlink="http://www.w3.org/1999/xlink" xmlns="http://www.w3.org/2000/svg"><defs><filter id="i0"><feComponentTransfer in="SourceGraphic"><feFuncA tableValues="1 0" type="table" /></feComponentTransfer></filter><mask height="20000" width="20000" y="-10000" x="-10000" maskContentUnits="userSpaceOnUse" maskUnits="userSpaceOnUse" style="mask-type: alpha" mask-type="alpha" id="i1"><g filter="url(#i0)"><rect opacity="0" fill="#ffffff" height="1080" width="1080" y="0" x="0" /><g><g transform="translate(313.167,559)"><animateTransform repeatCount="indefinite" type="translate" attributeName="transform" dur="2.667s" begin="0s" calcMode="spline" values="313.167 559; 564 560; 564 560; 785.396 559; 785.396 559; 518 562; 518 562; 313.167 559; 313.167 559" keyTimes="0; 0.125; 0.25; 0.375; 0.5; 0.625; 0.75; 0.875; 1" keySplines="0.333 0 0.363 1; 0 0 1 1; 0.333 0 0.376 1; 0 0 1 1; 0.333 0 0.376 1; 0 0 1 1; 0.333 0 0.35 1; 0 0 1 1" fill="freeze" /><g transform="rotate(0)"><animateTransform repeatCount="indefinite" type="rotate" attributeName="transform" dur="2.667s" begin="0s" calcMode="spline" values="0; 45; 45; 0; 0; -45; -45; 0; 0" keyTimes="0; 0.125; 0.25; 0.375; 0.5; 0.625; 0.75; 0.875; 1" keySplines="0.333 0 0.363 1; 0.333 0 0.667 1; 0.333 0 0.376 0.95; 0.333 0 0.667 1; 0.333 0 0.376 0.9; 0.333 0 0.667 1; 0.333 0 0.35 1; 0.333 0 0.667 1" fill="freeze" /><g transform="scale(1,1) translate(0,0)"><g transform="matrix(1.11,0,0,1.11,0.069,-30.501)" id="i2"><g id="i3"><path fill="#cc20aa" d="M-29.521,-48.604C-29.521,-48.604,-67.537,211.509,-67.537,301.705C-67.537,391.9,-35.855,426.25,0.004,426.25C35.862,426.25,67.536,391.9,67.536,301.705C67.536,211.509,29.527,-48.604,29.527,-48.604C72.863,-48.604,-72.857,-48.604,-29.521,-48.604Z" /></g></g></g></g></g></g></g></mask></defs><g mask="url(#i1)" id="i4"><g transform="translate(785.396,559)"><animateTransform repeatCount="indefinite" type="translate" attributeName="transform" dur="2.667s" begin="0s" calcMode="spline" values="785.396 559; 518 562; 518 562; 313.167 559; 313.167 559; 564 560; 564 560; 785.396 559; 785.396 559" keyTimes="0; 0.125; 0.25; 0.375; 0.5; 0.625; 0.75; 0.875; 1" keySplines="0.333 0 0.363 1; 0 0 1 1; 0.333 0 0.376 1; 0 0 1 1; 0.333 0 0.376 1; 0 0 1 1; 0.333 0 0.35 1; 0 0 1 1" fill="freeze" /><g transform="rotate(0)"><animateTransform repeatCount="indefinite" type="rotate" attributeName="transform" dur="2.667s" begin="0s" calcMode="spline" values="0; -45; -45; 0; 0; 45; 45; 0; 0" keyTimes="0; 0.125; 0.25; 0.375; 0.5; 0.625; 0.75; 0.875; 1" keySplines="0.333 0 0.363 1; 0.333 0 0.667 1; 0.333 0 0.376 1; 0.333 0 0.667 1; 0.333 0 0.376 1; 0.333 0 0.667 1; 0.333 0 0.35 1; 0.333 0 0.667 1" fill="freeze" /><g transform="scale(1,1) translate(0,0)"><g id="i3"><path fill="#14b8a6" d="M133.048,-234.994C131.739,-333.682,59.135,-426.25,0.003,-426.25C-59.128,-426.25,-131.731,-333.682,-133.048,-234.994C-135.16,-76.585,-29.512,-88.18,-29.512,-48.604C-29.512,-48.604,-67.536,211.509,-67.536,301.705C-67.536,391.9,-35.848,426.25,0.003,426.25C35.862,426.25,67.544,391.9,67.544,301.705C67.544,211.509,29.528,-48.604,29.528,-48.604C29.528,-88.18,135.168,-76.585,133.048,-234.994Z" /></g></g></g></g></g><g display="none" id="i5"><g transform="translate(313.167,559)"><animateTransform repeatCount="indefinite" type="translate" attributeName="transform" dur="2.667s" begin="0s" calcMode="spline" values="313.167 559; 564 560; 564 560; 785.396 559; 785.396 559; 518 562; 518 562; 313.167 559; 313.167 559" keyTimes="0; 0.125; 0.25; 0.375; 0.5; 0.625; 0.75; 0.875; 1" keySplines="0.333 0 0.363 1; 0 0 1 1; 0.333 0 0.376 1; 0 0 1 1; 0.333 0 0.376 1; 0 0 1 1; 0.333 0 0.35 1; 0 0 1 1" fill="freeze" /><g transform="rotate(0)"><animateTransform repeatCount="indefinite" type="rotate" attributeName="transform" dur="2.667s" begin="0s" calcMode="spline" values="0; 45; 45; 0; 0; -45; -45; 0; 0" keyTimes="0; 0.125; 0.25; 0.375; 0.5; 0.625; 0.75; 0.875; 1" keySplines="0.333 0 0.363 1; 0.333 0 0.667 1; 0.333 0 0.376 0.95; 0.333 0 0.667 1; 0.333 0 0.376 0.9; 0.333 0 0.667 1; 0.333 0 0.35 1; 0.333 0 0.667 1" fill="freeze" /><g transform="scale(1,1) translate(0,0)"><g transform="matrix(1.11,0,0,1.11,0.069,-30.501)" id="i2"><g id="i3"><path fill="#cc20aa" d="M-29.521,-48.604C-29.521,-48.604,-67.537,211.509,-67.537,301.705C-67.537,391.9,-35.855,426.25,0.004,426.25C35.862,426.25,67.536,391.9,67.536,301.705C67.536,211.509,29.527,-48.604,29.527,-48.604C72.863,-48.604,-72.857,-48.604,-29.521,-48.604Z" /></g></g></g></g></g></g><g id="i5"><g transform="translate(313.167,559)"><animateTransform repeatCount="indefinite" type="translate" attributeName="transform" dur="2.667s" begin="0s" calcMode="spline" values="313.167 559; 564 560; 564 560; 785.396 559; 785.396 559; 518 562; 518 562; 313.167 559; 313.167 559" keyTimes="0; 0.125; 0.25; 0.375; 0.5; 0.625; 0.75; 0.875; 1" keySplines="0.333 0 0.363 1; 0 0 1 1; 0.333 0 0.376 1; 0 0 1 1; 0.333 0 0.376 1; 0 0 1 1; 0.333 0 0.35 1; 0 0 1 1" fill="freeze" /><g transform="rotate(0)"><animateTransform repeatCount="indefinite" type="rotate" attributeName="transform" dur="2.667s" begin="0s" calcMode="spline" values="0; 45; 45; 0; 0; -45; -45; 0; 0" keyTimes="0; 0.125; 0.25; 0.375; 0.5; 0.625; 0.75; 0.875; 1" keySplines="0.333 0 0.363 1; 0.333 0 0.667 1; 0.333 0 0.376 0.95; 0.333 0 0.667 1; 0.333 0 0.376 0.9; 0.333 0 0.667 1; 0.333 0 0.35 1; 0.333 0 0.667 1" fill="freeze" /><g transform="scale(1,1) translate(0,0)"><g id="i3"><path fill="#14b8a6" d="M76.482,-396.503C76.482,-332.077,76.482,-237.586,76.482,-220.402C76.482,-173.179,23.224,-177.452,23.224,-216.115C23.224,-254.767,23.224,-315.983,23.224,-346.044C23.224,-376.117,14.739,-426.25,0.004,-426.25C-14.74,-426.25,-23.224,-376.117,-23.224,-346.044C-23.224,-315.983,-23.224,-254.767,-23.224,-216.115C-23.224,-177.452,-76.482,-173.179,-76.482,-220.402C-76.482,-237.586,-76.482,-332.077,-76.482,-396.503C-118.736,-379.319,-122.452,-256.242,-122.452,-171.249C-122.452,-82.377,-72.857,-48.604,-29.521,-48.604C-29.521,-48.604,-67.537,211.509,-67.537,301.705C-67.537,391.9,-35.855,426.25,0.004,426.25C35.862,426.25,67.536,391.9,67.536,301.705C67.536,211.509,29.527,-48.604,29.527,-48.604C72.863,-48.604,122.452,-82.377,122.452,-171.249C122.452,-256.242,118.744,-379.319,76.482,-396.503Z" /></g></g></g></g></g></svg>